<?xml version="1.0" encoding="UTF-8"?>
<svg xmlns="http://www.w3.org/2000/svg" xmlns:xlink="http://www.w3.org/1999/xlink" width="150px" height="150px" viewBox="0 0 150 150" version="1.1">
<g id="surface1">
<path style=" stroke:none;fill-rule:nonzero;fill:rgb(0%,0%,0%);fill-opacity:1;" d="M 68.578125 42.164062 C 68.296875 49.78125 64.523438 74.367188 60.328125 95.835938 C 58.828125 103.523438 57.46875 109.851562 56.25 115.101562 C 89.601562 89.460938 129.328125 94.148438 142.054688 96.539062 C 138.445312 86.085938 131.71875 69.914062 119.484375 48.984375 C 100.3125 16.101562 72.46875 15.75 65.226562 16.289062 C 66.65625 20.625 69 29.835938 68.578125 42.164062 Z M 92.226562 44.367188 C 93.632812 43.78125 94.96875 43.570312 96.210938 43.570312 C 100.078125 43.570312 102.867188 45.75 103.054688 45.890625 C 113.25 53.648438 121.757812 77.835938 124.6875 86.929688 C 100.804688 83.929688 79.875 91.757812 71.390625 95.578125 C 76.382812 58.40625 85.40625 47.179688 92.226562 44.367188 Z M 92.226562 44.367188 "/>
<path style=" stroke:none;fill-rule:nonzero;fill:rgb(0%,0%,0%);fill-opacity:1;" d="M 143.742188 101.648438 C 135.796875 99.84375 90 91.3125 54.375 122.742188 C 53.742188 125.15625 53.15625 127.265625 52.59375 129.070312 C 94.148438 95.484375 132.421875 102.515625 145.03125 106.21875 C 144.726562 105 144.304688 103.453125 143.742188 101.648438 Z M 143.742188 101.648438 "/>
<path style=" stroke:none;fill-rule:nonzero;fill:rgb(0%,0%,0%);fill-opacity:1;" d="M 60.65625 17.390625 C 51.914062 20.578125 17.601562 35.742188 6.65625 81.210938 C 12.164062 82.992188 42.890625 93.867188 50.882812 117.1875 C 56.648438 93.257812 63.46875 53.71875 63.890625 41.976562 C 64.3125 30.117188 61.898438 21.1875 60.65625 17.390625 Z M 60.65625 17.390625 "/>
<path style=" stroke:none;fill-rule:nonzero;fill:rgb(0%,0%,0%);fill-opacity:1;" d="M 5.648438 85.828125 C 5.414062 87.070312 5.15625 88.3125 4.945312 89.601562 C 14.085938 92.320312 42.210938 102.960938 45.65625 131.695312 C 45.75 132.5625 45.867188 133.265625 45.960938 133.828125 C 46.59375 132.398438 47.296875 130.335938 48.046875 127.804688 C 47.367188 101.273438 12.421875 88.125 5.648438 85.828125 Z M 5.648438 85.828125 "/>
</g>
</svg>
